<?xml version="1.0" encoding="UTF-8"?>
<svg version="1.1" xmlns="http://www.w3.org/2000/svg" width="200" height="200">
<path d="M0 0 C66 0 132 0 200 0 C200 66 200 132 200 200 C134 200 68 200 0 200 C0 134 0 68 0 0 Z " fill="#FEFEFE" transform="translate(0,0)"/>
<path d="M0 0 C3.3 0 6.6 0 10 0 C10.33 3.3 10.66 6.6 11 10 C11.66 9.67 12.32 9.34 13 9 C17.14135035 8.60930657 19.31186812 8.56617773 22.875 10.8125 C25 13 25 13 26 16 C26.33 10.72 26.66 5.44 27 0 C29.97 0 32.94 0 36 0 C36.495 6.93 36.495 6.93 37 14 C38.65 12.68 40.3 11.36 42 10 C45.94210784 8.02894608 50.70365901 8.54616116 55 9 C58.15570209 10.28543077 60.43975756 11.87951513 62 15 C62.94875 14.195625 63.8975 13.39125 64.875 12.5625 C69.10053164 8.97998404 71.96277772 8.72180555 77.453125 8.77734375 C80.86105274 9.07527608 83.17734551 10.09470822 86 12 C86.99 13.485 86.99 13.485 88 15 C88.33 10.05 88.66 5.1 89 0 C91.97 0 94.94 0 98 0 C98.495 8.415 98.495 8.415 99 17 C100.175625 15.2675 100.175625 15.2675 101.375 13.5 C103.44082872 11.0319306 104.41827938 10.10301303 107.625 9.53515625 C110.11610509 9.55992576 112.52866368 9.69230398 115 10 C112.75333364 13.40873516 110.46728428 16.74799207 108 20 C108.5775 20.84304687 109.155 21.68609375 109.75 22.5546875 C110.50024193 23.66129435 111.25022874 24.76807419 112 25.875 C112.7425 26.96554688 113.485 28.05609375 114.25 29.1796875 C116 32 116 32 116 34 C112.59975479 34.35040695 109.38657418 34.530811 106 34 C102 29.61904762 102 29.61904762 102 26 C98.68539295 27.70892499 98.68539295 27.70892499 98.3125 31.125 C98.209375 32.07375 98.10625 33.0225 98 34 C94.7 34 91.4 34 88 34 C87.505 32.02 87.505 32.02 87 30 C86.566875 30.474375 86.13375 30.94875 85.6875 31.4375 C81.92955187 34.9170816 76.87182153 34.43946823 72.03125 34.43359375 C67.42181238 33.77425409 64.93611896 31.47371821 62 28 C61.21625 28.804375 60.4325 29.60875 59.625 30.4375 C55.27898232 34.68004107 51.90242515 34.38137602 46 34.3671875 C41.58085367 33.8263024 39.92620038 32.25133375 37 29 C36.67 30.65 36.34 32.3 36 34 C32.7 34 29.4 34 26 34 C25.67 32.68 25.34 31.36 25 30 C24.525625 30.66 24.05125 31.32 23.5625 32 C20.27498349 34.56586655 18.19603551 34.50735319 14.12890625 34.33984375 C11.43363391 33.90958927 9.88168686 32.96349934 8 31 C8 31.99 8 32.98 8 34 C5.36 34 2.72 34 0 34 C0 22.78 0 11.56 0 0 Z " fill="#42474F" transform="translate(43,81)"/>
<path d="M0 0 C3.3 0 6.6 0 10 0 C10.33 3.3 10.66 6.6 11 10 C11.66 9.67 12.32 9.34 13 9 C17.14135035 8.60930657 19.31186812 8.56617773 22.875 10.8125 C25 13 25 13 26 16 C26.33 11.05 26.66 6.1 27 1 C29.64 1 32.28 1 35 1 C35 11.56 35 22.12 35 33 C32.36 33 29.72 33 27 33 C26.67 31.02 26.34 29.04 26 27 C25.731875 27.78375 25.46375 28.5675 25.1875 29.375 C24 32 24 32 21 34 C16.79115555 34.5968343 13.14215294 34.66857733 9.4375 32.5 C8.963125 32.005 8.48875 31.51 8 31 C8 31.99 8 32.98 8 34 C5.36 34 2.72 34 0 34 C0 22.78 0 11.56 0 0 Z " fill="#43484F" transform="translate(43,81)"/>
<path d="M0 0 C2.97 0 5.94 0 9 0 C9.495 8.415 9.495 8.415 10 17 C10.78375 15.845 11.5675 14.69 12.375 13.5 C14.44082872 11.0319306 15.41827938 10.10301303 18.625 9.53515625 C21.11610509 9.55992576 23.52866368 9.69230398 26 10 C23.75333364 13.40873516 21.46728428 16.74799207 19 20 C19.5775 20.84304687 20.155 21.68609375 20.75 22.5546875 C21.50024193 23.66129435 22.25022874 24.76807419 23 25.875 C23.7425 26.96554688 24.485 28.05609375 25.25 29.1796875 C27 32 27 32 27 34 C23.59975479 34.35040695 20.38657418 34.530811 17 34 C13 29.61904762 13 29.61904762 13 26 C9.88794071 27.98512949 9.88794071 27.98512949 8.25 31.1875 C8.1675 31.785625 8.085 32.38375 8 33 C5.36 33 2.72 33 0 33 C0 28.38 0 23.76 0 19 C-2.97 19 -5.94 19 -9 19 C-8.67 18.34 -8.34 17.68 -8 17 C-5.36 17.33 -2.72 17.66 0 18 C0 12.06 0 6.12 0 0 Z " fill="#3B4048" transform="translate(132,81)"/>
<path d="M0 0 C2.64 0 5.28 0 8 0 C8 10.56 8 21.12 8 32 C5.36 32 2.72 32 0 32 C0 21.44 0 10.88 0 0 Z " fill="#353A42" transform="translate(70,82)"/>
<path d="M0 0 C0.78375 0.04125 1.5675 0.0825 2.375 0.125 C3.035 1.445 3.695 2.765 4.375 4.125 C7.345 4.125 10.315 4.125 13.375 4.125 C13.375 5.775 13.375 7.425 13.375 9.125 C10.405 9.125 7.435 9.125 4.375 9.125 C3.715 10.445 3.055 11.765 2.375 13.125 C0 13.25 0 13.25 -2.625 13.125 C-4.625 11.125 -4.625 11.125 -4.890625 9.03125 C-4.88289063 7.84015625 -4.88289063 7.84015625 -4.875 6.625 C-4.88015625 5.8309375 -4.8853125 5.036875 -4.890625 4.21875 C-4.46382303 0.85454624 -3.29951585 0.1571198 0 0 Z " fill="#F0F1F1" transform="translate(118.625,95.875)"/>
<path d="M0 0 C2.5 0.25 2.5 0.25 4.5 2.25 C4.765625 4.34375 4.765625 4.34375 4.75 6.75 C4.75515625 7.5440625 4.7603125 8.338125 4.765625 9.15625 C4.5 11.25 4.5 11.25 2.5 13.25 C0 13.5 0 13.5 -2.5 13.25 C-4.5 11.25 -4.5 11.25 -4.765625 9.15625 C-4.75789063 7.96515625 -4.75789063 7.96515625 -4.75 6.75 C-4.75515625 5.9559375 -4.7603125 5.161875 -4.765625 4.34375 C-4.35119662 1.07707925 -3.20036774 0.32003677 0 0 Z " fill="#F2F2F3" transform="translate(92.5,95.75)"/>
<path d="M0 0 C4.29 0 8.58 0 13 0 C13 2.64 13 5.28 13 8 C8.71 8 4.42 8 0 8 C0 5.36 0 2.72 0 0 Z " fill="#3A3F47" transform="translate(20,100)"/>
<path d="M0 0 C2.4375 0.8125 2.4375 0.8125 4.4375 2.8125 C4.771228 5.94954316 4.96599028 7.97804166 3.25 10.6875 C0.79813578 12.20934676 -0.73068902 12.24816323 -3.5625 11.8125 C-5.87532587 8.34326119 -5.98728586 6.89044425 -5.5625 2.8125 C-3.8855372 0.07640281 -3.22049925 -0.23564629 0 0 Z " fill="#3E434B" transform="translate(175.5625,102.1875)"/>
<path d="M0 0 C2.5 0.125 2.5 0.125 3.5 1.125 C3.5979057 2.62238124 3.62974864 4.12442892 3.625 5.625 C3.62757812 6.4396875 3.63015625 7.254375 3.6328125 8.09375 C3.5 10.125 3.5 10.125 2.5 11.125 C0 11.25 0 11.25 -2.5 11.125 C-3.5 10.125 -3.5 10.125 -3.6328125 8.09375 C-3.63023438 7.2790625 -3.62765625 6.464375 -3.625 5.625 C-3.62757812 4.8103125 -3.63015625 3.995625 -3.6328125 3.15625 C-3.43435342 0.12099356 -3.05615366 0.15280768 0 0 Z " fill="#FAFAFB" transform="translate(56.5,96.875)"/>
<path d="M0 0 C0.99 0.66 1.98 1.32 3 2 C3 2.66 3 3.32 3 4 C-0.3 4 -3.6 4 -7 4 C-7 3.34 -7 2.68 -7 2 C-4.69 2 -2.38 2 0 2 C0 1.34 0 0.68 0 0 Z " fill="#494E55" transform="translate(156,111)"/>
</svg>
